<svg xmlns="http://www.w3.org/2000/svg" viewBox="0 0 100 100" preserveAspectRatio="xMidYMid meet" width="100%" height="100%" style="display: block;"><!-- Author: Kirill Ateev. Links: www.kirillateev.art, www.ateev.art. Date: September 2025. License: CC BY-ND 4.0. --><style>@keyframes s-a-0{to{stroke-dashoffset:3.66}}.s-a-0{stroke-dasharray:1.68 1.98;animation:s-a-0 1.1s infinite linear;}@keyframes s-a-1{to{stroke-dashoffset:37.9}}.s-a-1{stroke-dasharray:16.28 21.63;animation:s-a-1 11.75s infinite linear;}@keyframes s-a-2{to{stroke-dashoffset:-14.65}}.s-a-2{stroke-dasharray:5.32 9.32;animation:s-a-2 2.49s infinite linear;}@keyframes s-a-3{to{stroke-dashoffset:-3.07}}.s-a-3{stroke-dasharray:1.23 1.85;animation:s-a-3 0.83s infinite linear;}@keyframes s-a-4{to{stroke-dashoffset:-0.73}}.s-a-4{stroke-dasharray:0.47 0.27;animation:s-a-4 0.07s infinite linear;}@keyframes s-a-5{to{stroke-dashoffset:-3.96}}.s-a-5{stroke-dasharray:1.54 2.41;animation:s-a-5 1.11s infinite linear;}@keyframes s-a-6{to{stroke-dashoffset:25.11}}.s-a-6{stroke-dasharray:15.8 9.31;animation:s-a-6 2.01s infinite linear;}@keyframes s-a-7{to{stroke-dashoffset:2.21}}.s-a-7{stroke-dasharray:1.17 1.04;animation:s-a-7 0.71s infinite linear;}@keyframes s-a-8{to{stroke-dashoffset:-1.86}}.s-a-8{stroke-dasharray:0.94 0.92;animation:s-a-8 0.07s infinite linear;}@keyframes s-a-9{to{stroke-dashoffset:24.98}}.s-a-9{stroke-dasharray:8.83 16.15;animation:s-a-9 3.25s infinite linear;}@keyframes s-a-10{to{stroke-dashoffset:3.95}}.s-a-10{stroke-dasharray:2.1 1.85;animation:s-a-10 0.32s infinite linear;}@keyframes s-a-11{to{stroke-dashoffset:13.42}}.s-a-11{stroke-dasharray:6.08 7.34;animation:s-a-11 0.4s infinite linear;}@keyframes s-a-12{to{stroke-dashoffset:-9.65}}.s-a-12{stroke-dasharray:4.31 5.34;animation:s-a-12 2.61s infinite linear;}@keyframes s-a-13{to{stroke-dashoffset:24.9}}.s-a-13{stroke-dasharray:10.46 14.44;animation:s-a-13 4.48s infinite linear;}@keyframes s-a-14{to{stroke-dashoffset:-17.82}}.s-a-14{stroke-dasharray:7.6 10.22;animation:s-a-14 3.92s infinite linear;}@keyframes s-a-15{to{stroke-dashoffset:-13.53}}.s-a-15{stroke-dasharray:4.53 9;animation:s-a-15 3.65s infinite linear;}@keyframes s-a-16{to{stroke-dashoffset:-34.12}}.s-a-16{stroke-dasharray:12.35 21.76;animation:s-a-16 8.53s infinite linear;}@keyframes s-a-17{to{stroke-dashoffset:17.06}}.s-a-17{stroke-dasharray:5.78 11.28;animation:s-a-17 2.05s infinite linear;}</style><rect width="100" height="100" fill="hsl(0,0%,0%,0.1)"/><path d="M0,0h13.7129v53.7014h-13.7129z" fill="hsl(209,100%,48%)"/><path class="s-a-0" d="M0,26.8507L13.7129,26.8507" stroke="black" stroke-width="53.7014"/><path d="M46.6946,0h8.8468v33.0518h-8.8468z" fill="hsl(119,100%,48%)"/><path class="s-a-1" d="M51.118,0L51.118,33.0518" stroke="black" stroke-width="8.8468"/><path d="M46.6946,85h53.3054v15h-53.3054z" fill="hsl(209,100%,48%)"/><path class="s-a-2" d="M73.3473,85L73.3473,100" stroke="black" stroke-width="53.3054"/><path d="M39.6904,0h7.0042v100h-7.0042z" fill="hsl(299,100%,48%)"/><path class="s-a-3" d="M39.6904,50L46.6946,50" stroke="black" stroke-width="100"/><path d="M80.4338,0h4.0536v85h-4.0536z" fill="hsl(119,100%,48%)"/><path class="s-a-4" d="M80.4338,42.5L84.4874,42.5" stroke="black" stroke-width="85"/><path d="M17.2752,0h5.791v100h-5.791z" fill="hsl(299,100%,48%)"/><path class="s-a-5" d="M17.2752,50L23.0662,50" stroke="black" stroke-width="100"/><path d="M46.6946,41.9924h17.1722v43.0076h-17.1722z" fill="hsl(299,100%,48%)"/><path class="s-a-6" d="M55.2807,41.9924L55.2807,85" stroke="black" stroke-width="17.1722"/><path d="M23.0662,0h2.8647v100h-2.8647z" fill="hsl(209,100%,48%)"/><path class="s-a-7" d="M23.0662,50L25.9309,50" stroke="black" stroke-width="100"/><path d="M13.7129,0h3.5624v100h-3.5624z" fill="hsl(209,100%,48%)"/><path class="s-a-8" d="M13.7129,50L17.2752,50" stroke="black" stroke-width="100"/><path d="M84.4874,0h15.5126v21.2145h-15.5126z" fill="hsl(29,100%,48%)"/><path class="s-a-9" d="M92.2437,0L92.2437,21.2145" stroke="black" stroke-width="15.5126"/><path d="M25.9309,0h13.7596v42.5252h-13.7596z" fill="hsl(119,100%,48%)"/><path class="s-a-10" d="M25.9309,21.2626L39.6904,21.2626" stroke="black" stroke-width="42.5252"/><path d="M63.8668,41.9924h16.567v43.0076h-16.567z" fill="hsl(299,100%,48%)"/><path class="s-a-11" d="M72.1503,41.9924L72.1503,85" stroke="black" stroke-width="16.567"/><path d="M46.6946,33.0518h33.7392v8.9406h-33.7392z" fill="hsl(209,100%,48%)"/><path class="s-a-12" d="M46.6946,37.5221L80.4338,37.5221" stroke="black" stroke-width="8.9406"/><path d="M25.9309,42.5252h13.7596v57.4748h-13.7596z" fill="hsl(119,100%,48%)"/><path class="s-a-13" d="M32.8106,42.5252L32.8106,100" stroke="black" stroke-width="13.7596"/><path d="M0,53.7014h13.7129v46.2986h-13.7129z" fill="hsl(119,100%,48%)"/><path class="s-a-14" d="M6.8564,53.7014L6.8564,100" stroke="black" stroke-width="13.7129"/><path d="M84.4874,21.2145h15.5126v54.2177h-15.5126z" fill="hsl(29,100%,48%)"/><path class="s-a-15" d="M84.4874,48.3233L100,48.3233" stroke="black" stroke-width="54.2177"/><path d="M55.5414,0h24.8924v33.0518h-24.8924z" fill="hsl(209,100%,48%)"/><path class="s-a-16" d="M55.5414,16.5259L80.4338,16.5259" stroke="black" stroke-width="33.0518"/><path d="M84.4874,75.4322h15.5126v9.5678h-15.5126z" fill="hsl(209,100%,48%)"/><path class="s-a-17" d="M84.4874,80.2161L100,80.2161" stroke="black" stroke-width="9.5678"/></svg>