<svg xmlns="http://www.w3.org/2000/svg" viewBox="0 0 100 100" preserveAspectRatio="xMidYMid meet" width="100%" height="100%" style="display: block;"><!-- Author: Kirill Ateev. Links: www.kirillateev.art, www.ateev.art. Date: September 2025. License: CC BY-ND 4.0. --><style>@keyframes s-a-0{to{stroke-dashoffset:6.19}}.s-a-0{stroke-dasharray:2.92 3.27;animation:s-a-0 1.36s infinite linear;}@keyframes s-a-1{to{stroke-dashoffset:-2.37}}.s-a-1{stroke-dasharray:0.86 1.51;animation:s-a-1 0.59s infinite linear;}@keyframes s-a-2{to{stroke-dashoffset:-24.08}}.s-a-2{stroke-dasharray:11.21 12.87;animation:s-a-2 6.74s infinite linear;}@keyframes s-a-3{to{stroke-dashoffset:27.77}}.s-a-3{stroke-dasharray:9.38 18.39;animation:s-a-3 6.39s infinite linear;}@keyframes s-a-4{to{stroke-dashoffset:4.69}}.s-a-4{stroke-dasharray:2.59 2.1;animation:s-a-4 0.28s infinite linear;}@keyframes s-a-5{to{stroke-dashoffset:18.19}}.s-a-5{stroke-dasharray:11.03 7.17;animation:s-a-5 1.27s infinite linear;}@keyframes s-a-6{to{stroke-dashoffset:-12.69}}.s-a-6{stroke-dasharray:5.57 7.12;animation:s-a-6 0.63s infinite linear;}@keyframes s-a-7{to{stroke-dashoffset:5.49}}.s-a-7{stroke-dasharray:2.67 2.82;animation:s-a-7 0.82s infinite linear;}@keyframes s-a-8{to{stroke-dashoffset:6.76}}.s-a-8{stroke-dasharray:4.04 2.72;animation:s-a-8 0.34s infinite linear;}@keyframes s-a-9{to{stroke-dashoffset:-10.67}}.s-a-9{stroke-dasharray:5.04 5.63;animation:s-a-9 2.03s infinite linear;}@keyframes s-a-10{to{stroke-dashoffset:-31.35}}.s-a-10{stroke-dasharray:10.59 20.76;animation:s-a-10 7.21s infinite linear;}@keyframes s-a-11{to{stroke-dashoffset:6.35}}.s-a-11{stroke-dasharray:2.99 3.36;animation:s-a-11 0.38s infinite linear;}@keyframes s-a-12{to{stroke-dashoffset:-2.18}}.s-a-12{stroke-dasharray:1.35 0.82;animation:s-a-12 0.67s infinite linear;}@keyframes s-a-13{to{stroke-dashoffset:-9.64}}.s-a-13{stroke-dasharray:5.19 4.45;animation:s-a-13 2.31s infinite linear;}@keyframes s-a-14{to{stroke-dashoffset:-12.09}}.s-a-14{stroke-dasharray:5.12 6.97;animation:s-a-14 0.73s infinite linear;}@keyframes s-a-15{to{stroke-dashoffset:-22.36}}.s-a-15{stroke-dasharray:9.33 13.04;animation:s-a-15 2.01s infinite linear;}@keyframes s-a-16{to{stroke-dashoffset:9.76}}.s-a-16{stroke-dasharray:4.79 4.97;animation:s-a-16 2.83s infinite linear;}@keyframes s-a-17{to{stroke-dashoffset:9.57}}.s-a-17{stroke-dasharray:3.29 6.27;animation:s-a-17 2.77s infinite linear;}</style><rect width="100" height="100" fill="hsl(0,0%,0%,0.1)"/><path d="M0,0h15v49.3707h-15z" fill="hsl(117,100%,56%)"/><path class="s-a-0" d="M0,24.6854L15,24.6854" stroke="hsl(147,100%,56%)" stroke-width="49.3707"/><path d="M15,0h85v2.9236h-85z" fill="hsl(147,100%,56%)"/><path class="s-a-1" d="M57.5,0L57.5,2.9236" stroke="hsl(117,100%,56%)" stroke-width="85"/><path d="M15,17.2119h18.0017v41.4415h-18.0017z" fill="hsl(147,100%,56%)"/><path class="s-a-2" d="M24.0008,17.2119L24.0008,58.6533" stroke="hsl(117,100%,56%)" stroke-width="18.0017"/><path d="M53.5407,17.2119h46.4593v19.4128h-46.4593z" fill="hsl(117,100%,56%)"/><path class="s-a-3" d="M76.7703,17.2119L76.7703,36.6247" stroke="hsl(147,100%,56%)" stroke-width="46.4593"/><path d="M53.5407,36.6247h46.4593v9.5063h-46.4593z" fill="hsl(117,100%,56%)"/><path class="s-a-4" d="M76.7703,36.6247L76.7703,46.131" stroke="hsl(147,100%,56%)" stroke-width="46.4593"/><path d="M15,84.7077h38.5407v15.2923h-38.5407z" fill="hsl(117,100%,56%)"/><path class="s-a-5" d="M15,92.3539L53.5407,92.3539" stroke="hsl(147,100%,56%)" stroke-width="15.2923"/><path d="M53.5407,46.131h13.2186v34.6877h-13.2186z" fill="hsl(117,100%,56%)"/><path class="s-a-6" d="M53.5407,63.4748L66.7593,63.4748" stroke="hsl(147,100%,56%)" stroke-width="34.6877"/><path d="M15,67.5186h38.5407v17.1891h-38.5407z" fill="hsl(147,100%,56%)"/><path class="s-a-7" d="M34.2703,67.5186L34.2703,84.7077" stroke="hsl(117,100%,56%)" stroke-width="38.5407"/><path d="M53.5407,80.8187h46.4593v19.1813h-46.4593z" fill="hsl(147,100%,56%)"/><path class="s-a-8" d="M76.7703,80.8187L76.7703,100" stroke="hsl(117,100%,56%)" stroke-width="46.4593"/><path d="M33.0017,17.2119h20.539v37.8251h-20.539z" fill="hsl(117,100%,56%)"/><path class="s-a-9" d="M33.0017,36.1244L53.5407,36.1244" stroke="hsl(147,100%,56%)" stroke-width="37.8251"/><path d="M66.7593,46.131h33.2407v15.8194h-33.2407z" fill="hsl(117,100%,56%)"/><path class="s-a-10" d="M66.7593,54.0407L100,54.0407" stroke="hsl(147,100%,56%)" stroke-width="15.8194"/><path d="M0,49.3707h15v50.6293h-15z" fill="hsl(147,100%,56%)"/><path class="s-a-11" d="M0,74.6854L15,74.6854" stroke="hsl(117,100%,56%)" stroke-width="50.6293"/><path d="M15,14.6301h85v2.5818h-85z" fill="hsl(117,100%,56%)"/><path class="s-a-12" d="M57.5,14.6301L57.5,17.2119" stroke="hsl(147,100%,56%)" stroke-width="85"/><path d="M15,2.9236h12.75v11.7065h-12.75z" fill="hsl(147,100%,56%)"/><path class="s-a-13" d="M21.375,2.9236L21.375,14.6301" stroke="hsl(117,100%,56%)" stroke-width="12.75"/><path d="M66.7593,61.9504h33.2407v18.8683h-33.2407z" fill="hsl(117,100%,56%)"/><path class="s-a-14" d="M66.7593,71.3845L100,71.3845" stroke="hsl(147,100%,56%)" stroke-width="18.8683"/><path d="M33.0017,55.037h20.539v12.4816h-20.539z" fill="hsl(147,100%,56%)"/><path class="s-a-15" d="M33.0017,61.2778L53.5407,61.2778" stroke="hsl(117,100%,56%)" stroke-width="12.4816"/><path d="M27.75,2.9236h72.25v11.7065h-72.25z" fill="hsl(117,100%,56%)"/><path class="s-a-16" d="M63.875,2.9236L63.875,14.6301" stroke="hsl(147,100%,56%)" stroke-width="72.25"/><path d="M15,58.6533h18.0017v8.8653h-18.0017z" fill="hsl(147,100%,56%)"/><path class="s-a-17" d="M15,63.086L33.0017,63.086" stroke="hsl(117,100%,56%)" stroke-width="8.8653"/></svg>