<svg xmlns="http://www.w3.org/2000/svg" viewBox="0 0 100 100" preserveAspectRatio="xMidYMid meet" width="100%" height="100%" style="display: block;"><!-- Author: Kirill Ateev. Links: www.kirillateev.art, www.ateev.art. Date: September 2025. License: CC BY-ND 4.0. --><style>@keyframes s-a-0{to{stroke-dashoffset:-38.26}}.s-a-0{stroke-dasharray:12.95 25.31;animation:s-a-0 9.95s infinite linear;}@keyframes s-a-1{to{stroke-dashoffset:11.77}}.s-a-1{stroke-dasharray:5.18 6.6;animation:s-a-1 0.59s infinite linear;}@keyframes s-a-2{to{stroke-dashoffset:-22.05}}.s-a-2{stroke-dasharray:10.85 11.2;animation:s-a-2 6.84s infinite linear;}@keyframes s-a-3{to{stroke-dashoffset:-23.08}}.s-a-3{stroke-dasharray:13.23 9.85;animation:s-a-3 0.69s infinite linear;}@keyframes s-a-4{to{stroke-dashoffset:-1.37}}.s-a-4{stroke-dasharray:0.5 0.87;animation:s-a-4 0.11s infinite linear;}@keyframes s-a-5{to{stroke-dashoffset:-80.79}}.s-a-5{stroke-dasharray:32.29 48.51;animation:s-a-5 13.73s infinite linear;}@keyframes s-a-6{to{stroke-dashoffset:-9.49}}.s-a-6{stroke-dasharray:5.1 4.39;animation:s-a-6 1.23s infinite linear;}@keyframes s-a-7{to{stroke-dashoffset:16.49}}.s-a-7{stroke-dasharray:5.65 10.85;animation:s-a-7 4.78s infinite linear;}@keyframes s-a-8{to{stroke-dashoffset:9.12}}.s-a-8{stroke-dasharray:3.76 5.36;animation:s-a-8 1.19s infinite linear;}@keyframes s-a-9{to{stroke-dashoffset:-66.88}}.s-a-9{stroke-dasharray:30.69 36.19;animation:s-a-9 10.7s infinite linear;}@keyframes s-a-10{to{stroke-dashoffset:-17.68}}.s-a-10{stroke-dasharray:7.25 10.43;animation:s-a-10 1.77s infinite linear;}@keyframes s-a-11{to{stroke-dashoffset:-27.74}}.s-a-11{stroke-dasharray:10.82 16.92;animation:s-a-11 2.77s infinite linear;}@keyframes s-a-12{to{stroke-dashoffset:-19.75}}.s-a-12{stroke-dasharray:9.1 10.65;animation:s-a-12 4.15s infinite linear;}@keyframes s-a-13{to{stroke-dashoffset:-1.62}}.s-a-13{stroke-dasharray:0.94 0.68;animation:s-a-13 0.47s infinite linear;}@keyframes s-a-14{to{stroke-dashoffset:-23.55}}.s-a-14{stroke-dasharray:15.63 7.92;animation:s-a-14 5.89s infinite linear;}@keyframes s-a-15{to{stroke-dashoffset:-2.95}}.s-a-15{stroke-dasharray:1.7 1.25;animation:s-a-15 0.77s infinite linear;}@keyframes s-a-16{to{stroke-dashoffset:15.96}}.s-a-16{stroke-dasharray:6.04 9.93;animation:s-a-16 1.12s infinite linear;}@keyframes s-a-17{to{stroke-dashoffset:-0.8}}.s-a-17{stroke-dasharray:0.44 0.36;animation:s-a-17 0.24s infinite linear;}</style><rect width="100" height="100" fill="hsl(0,0%,0%,0.5)"/><path d="M0,0h25.9297v37.9241h-25.9297z" fill="hsl(339,100%,44%)"/><path class="s-a-0" d="M0,18.962L25.9297,18.962" stroke="hsl(9,100%,44%)" stroke-width="37.9241"/><path d="M25.9297,0h11.1105v71.5759h-11.1105z" fill="hsl(339,100%,44%)"/><path class="s-a-1" d="M25.9297,35.7879L37.0403,35.7879" stroke="hsl(9,100%,44%)" stroke-width="71.5759"/><path d="M25.9297,71.5759h14.2704v28.4241h-14.2704z" fill="hsl(9,100%,44%)"/><path class="s-a-2" d="M33.0649,71.5759L33.0649,100" stroke="hsl(339,100%,44%)" stroke-width="14.2704"/><path d="M37.0403,0h11.9262v71.5759h-11.9262z" fill="hsl(339,100%,44%)"/><path class="s-a-3" d="M43.0034,0L43.0034,71.5759" stroke="hsl(9,100%,44%)" stroke-width="11.9262"/><path d="M62.3183,0h2.8547v60.8395h-2.8547z" fill="hsl(339,100%,44%)"/><path class="s-a-4" d="M62.3183,30.4197L65.173,30.4197" stroke="hsl(9,100%,44%)" stroke-width="60.8395"/><path d="M89.0821,0h10.9179v71.5759h-10.9179z" fill="hsl(9,100%,44%)"/><path class="s-a-5" d="M94.5411,0L94.5411,71.5759" stroke="hsl(339,100%,44%)" stroke-width="10.9179"/><path d="M0,44.6166h17.6952v47.0759h-17.6952z" fill="hsl(339,100%,44%)"/><path class="s-a-6" d="M8.8476,44.6166L8.8476,91.6925" stroke="hsl(9,100%,44%)" stroke-width="17.6952"/><path d="M84.458,71.5759h15.542v28.4241h-15.542z" fill="hsl(339,100%,44%)"/><path class="s-a-7" d="M84.458,85.7879L100,85.7879" stroke="hsl(9,100%,44%)" stroke-width="28.4241"/><path d="M62.3183,60.8395h26.7638v10.7364h-26.7638z" fill="hsl(9,100%,44%)"/><path class="s-a-8" d="M75.7002,60.8395L75.7002,71.5759" stroke="hsl(339,100%,44%)" stroke-width="26.7638"/><path d="M48.9665,0h13.3518v71.5759h-13.3518z" fill="hsl(9,100%,44%)"/><path class="s-a-9" d="M55.6424,0L55.6424,71.5759" stroke="hsl(339,100%,44%)" stroke-width="13.3518"/><path d="M62.7605,71.5759h21.6975v28.4241h-21.6975z" fill="hsl(9,100%,44%)"/><path class="s-a-10" d="M73.6092,71.5759L73.6092,100" stroke="hsl(339,100%,44%)" stroke-width="21.6975"/><path d="M81.3496,0h7.7325v60.8395h-7.7325z" fill="hsl(339,100%,44%)"/><path class="s-a-11" d="M85.2159,0L85.2159,60.8395" stroke="hsl(9,100%,44%)" stroke-width="7.7325"/><path d="M0,91.6925h25.9297v8.3075h-25.9297z" fill="hsl(339,100%,44%)"/><path class="s-a-12" d="M0,95.8462L25.9297,95.8462" stroke="hsl(9,100%,44%)" stroke-width="8.3075"/><path d="M17.6952,44.6166h8.2345v47.0759h-8.2345z" fill="hsl(9,100%,44%)"/><path class="s-a-13" d="M17.6952,68.1545L25.9297,68.1545" stroke="hsl(339,100%,44%)" stroke-width="47.0759"/><path d="M65.173,0h13.7501v60.8395h-13.7501z" fill="hsl(339,100%,44%)"/><path class="s-a-14" d="M72.0481,0L72.0481,60.8395" stroke="hsl(9,100%,44%)" stroke-width="13.7501"/><path d="M0,37.9241h25.9297v6.6925h-25.9297z" fill="hsl(9,100%,44%)"/><path class="s-a-15" d="M12.9649,37.9241L12.9649,44.6166" stroke="hsl(339,100%,44%)" stroke-width="25.9297"/><path d="M40.2001,71.5759h22.5604v28.4241h-22.5604z" fill="hsl(339,100%,44%)"/><path class="s-a-16" d="M51.4803,71.5759L51.4803,100" stroke="hsl(9,100%,44%)" stroke-width="22.5604"/><path d="M78.9231,0h2.4265v60.8395h-2.4265z" fill="hsl(9,100%,44%)"/><path class="s-a-17" d="M78.9231,30.4197L81.3496,30.4197" stroke="hsl(339,100%,44%)" stroke-width="60.8395"/></svg>