<svg xmlns="http://www.w3.org/2000/svg" viewBox="0 0 100 100" preserveAspectRatio="xMidYMid meet" width="100%" height="100%" style="display: block;"><!-- Author: Kirill Ateev. Links: www.kirillateev.art, www.ateev.art. Date: September 2025. License: CC BY-ND 4.0. --><style>@keyframes s-a-0{to{stroke-dashoffset:-6.67}}.s-a-0{stroke-dasharray:3.45 3.23;animation:s-a-0 1.53s infinite linear;}@keyframes s-a-1{to{stroke-dashoffset:9.14}}.s-a-1{stroke-dasharray:6.08 3.06;animation:s-a-1 1.28s infinite linear;}@keyframes s-a-2{to{stroke-dashoffset:14.91}}.s-a-2{stroke-dasharray:5.82 9.09;animation:s-a-2 2.38s infinite linear;}@keyframes s-a-3{to{stroke-dashoffset:-54.14}}.s-a-3{stroke-dasharray:19.65 34.48;animation:s-a-3 15.16s infinite linear;}@keyframes s-a-4{to{stroke-dashoffset:20.21}}.s-a-4{stroke-dasharray:7.37 12.84;animation:s-a-4 6.26s infinite linear;}@keyframes s-a-5{to{stroke-dashoffset:-47.18}}.s-a-5{stroke-dasharray:17.83 29.35;animation:s-a-5 3.3s infinite linear;}@keyframes s-a-6{to{stroke-dashoffset:-94.46}}.s-a-6{stroke-dasharray:32.42 62.03;animation:s-a-6 6.61s infinite linear;}</style><rect width="100" height="100" fill="hsl(0,0%,0%,0.5)"/><path d="M0,0h15v73.5263h-15z" fill="hsl(325,100%,50%)"/><path class="s-a-0" d="M0,36.7631L15,36.7631" stroke="hsl(244,100%,13%)" stroke-width="73.5263"/><path d="M0,73.5263h15v26.4737h-15z" fill="hsl(151,100%,58%)"/><path class="s-a-1" d="M0,86.7631L15,86.7631" stroke="hsl(262,100%,60%)" stroke-width="26.4737"/><path d="M15,0h13.5213v73.5263h-13.5213z" fill="hsl(286,100%,14%)"/><path class="s-a-2" d="M15,36.7631L28.5213,36.7631" stroke="hsl(353,100%,66%)" stroke-width="73.5263"/><path d="M28.5213,0h33.5965v73.5263h-33.5965z" fill="hsl(188,100%,44%)"/><path class="s-a-3" d="M45.3196,0L45.3196,73.5263" stroke="hsl(66,100%,78%)" stroke-width="33.5965"/><path d="M62.1178,0h37.8822v26.6627h-37.8822z" fill="hsl(47,100%,21%)"/><path class="s-a-4" d="M81.0589,0L81.0589,26.6627" stroke="hsl(120,100%,64%)" stroke-width="37.8822"/><path d="M62.1178,26.6627h37.8822v46.8636h-37.8822z" fill="hsl(146,100%,78%)"/><path class="s-a-5" d="M81.0589,26.6627L81.0589,73.5263" stroke="hsl(70,100%,86%)" stroke-width="37.8822"/><path d="M15,73.5263h85v26.4737h-85z" fill="hsl(49,100%,68%)"/><path class="s-a-6" d="M15,86.7631L100,86.7631" stroke="hsl(192,100%,13%)" stroke-width="26.4737"/></svg>