<svg xmlns="http://www.w3.org/2000/svg" viewBox="0 0 100 100" preserveAspectRatio="xMidYMid meet" width="100%" height="100%" style="display: block;"><!-- Author: Kirill Ateev. Links: www.kirillateev.art, www.ateev.art. Date: September 2025. License: CC BY-ND 4.0. --><style>@keyframes s-a-0{to{stroke-dashoffset:-6.39}}.s-a-0{stroke-dasharray:2.2 4.2;animation:s-a-0 1.15s infinite linear;}@keyframes s-a-1{to{stroke-dashoffset:-3.08}}.s-a-1{stroke-dasharray:1.98 1.1;animation:s-a-1 0.18s infinite linear;}@keyframes s-a-2{to{stroke-dashoffset:43.73}}.s-a-2{stroke-dasharray:16.97 26.76;animation:s-a-2 9.18s infinite linear;}@keyframes s-a-3{to{stroke-dashoffset:-6.51}}.s-a-3{stroke-dasharray:2.18 4.34;animation:s-a-3 0.85s infinite linear;}@keyframes s-a-4{to{stroke-dashoffset:-2.35}}.s-a-4{stroke-dasharray:0.97 1.38;animation:s-a-4 0.23s infinite linear;}@keyframes s-a-5{to{stroke-dashoffset:-50.54}}.s-a-5{stroke-dasharray:17.17 33.38;animation:s-a-5 1.52s infinite linear;}@keyframes s-a-6{to{stroke-dashoffset:-21.51}}.s-a-6{stroke-dasharray:8.55 12.96;animation:s-a-6 4.95s infinite linear;}@keyframes s-a-7{to{stroke-dashoffset:10.1}}.s-a-7{stroke-dasharray:4.61 5.49;animation:s-a-7 0.71s infinite linear;}@keyframes s-a-8{to{stroke-dashoffset:21.28}}.s-a-8{stroke-dasharray:7.77 13.51;animation:s-a-8 1.49s infinite linear;}@keyframes s-a-9{to{stroke-dashoffset:10.21}}.s-a-9{stroke-dasharray:5.2 5.02;animation:s-a-9 2.25s infinite linear;}@keyframes s-a-10{to{stroke-dashoffset:-5.48}}.s-a-10{stroke-dasharray:2.06 3.42;animation:s-a-10 1.43s infinite linear;}@keyframes s-a-11{to{stroke-dashoffset:-2.42}}.s-a-11{stroke-dasharray:1.5 0.91;animation:s-a-11 0.22s infinite linear;}@keyframes s-a-12{to{stroke-dashoffset:6.95}}.s-a-12{stroke-dasharray:3.31 3.65;animation:s-a-12 2.22s infinite linear;}@keyframes s-a-13{to{stroke-dashoffset:-5.59}}.s-a-13{stroke-dasharray:1.99 3.6;animation:s-a-13 0.95s infinite linear;}@keyframes s-a-14{to{stroke-dashoffset:-26.27}}.s-a-14{stroke-dasharray:11.59 14.68;animation:s-a-14 3.94s infinite linear;}@keyframes s-a-15{to{stroke-dashoffset:5.69}}.s-a-15{stroke-dasharray:3.21 2.47;animation:s-a-15 1.25s infinite linear;}@keyframes s-a-16{to{stroke-dashoffset:-23.74}}.s-a-16{stroke-dasharray:13.78 9.96;animation:s-a-16 2.14s infinite linear;}@keyframes s-a-17{to{stroke-dashoffset:-4.81}}.s-a-17{stroke-dasharray:1.61 3.2;animation:s-a-17 0.63s infinite linear;}@keyframes s-a-18{to{stroke-dashoffset:-47.36}}.s-a-18{stroke-dasharray:20.95 26.4;animation:s-a-18 7.1s infinite linear;}@keyframes s-a-19{to{stroke-dashoffset:44.36}}.s-a-19{stroke-dasharray:24.05 20.31;animation:s-a-19 10.2s infinite linear;}@keyframes s-a-20{to{stroke-dashoffset:-7.13}}.s-a-20{stroke-dasharray:3.3 3.83;animation:s-a-20 1.92s infinite linear;}</style><rect width="100" height="100" fill="hsl(0,0%,0%,0.5)"/><path d="M0,0h63.4818v6.3585h-63.4818z" fill="hsl(153,100%,35%)"/><path class="s-a-0" d="M31.7409,0L31.7409,6.3585" stroke="hsl(170,100%,39%)" stroke-width="63.4818"/><path d="M74.6845,0h10.0957v58.183h-10.0957z" fill="hsl(108,100%,45%)"/><path class="s-a-1" d="M74.6845,29.0915L84.7802,29.0915" stroke="hsl(77,100%,17%)" stroke-width="58.183"/><path d="M63.4818,0h11.2027v69.7086h-11.2027z" fill="hsl(318,100%,57%)"/><path class="s-a-2" d="M69.0831,0L69.0831,69.7086" stroke="hsl(316,100%,20%)" stroke-width="11.2027"/><path d="M0,15h9.5223v72.25h-9.5223z" fill="hsl(115,100%,35%)"/><path class="s-a-3" d="M0,51.125L9.5223,51.125" stroke="hsl(324,100%,36%)" stroke-width="72.25"/><path d="M0,87.25h63.4818v7.6026h-63.4818z" fill="hsl(201,100%,14%)"/><path class="s-a-4" d="M31.7409,87.25L31.7409,94.8526" stroke="hsl(98,100%,41%)" stroke-width="63.4818"/><path d="M9.5223,15h37.9385v11.7889h-37.9385z" fill="hsl(285,100%,63%)"/><path class="s-a-5" d="M9.5223,20.8944L47.4607,20.8944" stroke="hsl(261,100%,35%)" stroke-width="11.7889"/><path d="M47.4607,15h16.0211v22.4503h-16.0211z" fill="hsl(355,100%,47%)"/><path class="s-a-6" d="M55.4713,15L55.4713,37.4503" stroke="hsl(245,100%,30%)" stroke-width="16.0211"/><path d="M9.5223,76.4125h37.9385v10.8375h-37.9385z" fill="hsl(198,100%,72%)"/><path class="s-a-7" d="M28.4915,76.4125L28.4915,87.25" stroke="hsl(287,100%,24%)" stroke-width="37.9385"/><path d="M74.6845,71.3337h25.3155v28.6663h-25.3155z" fill="hsl(290,100%,21%)"/><path class="s-a-8" d="M74.6845,85.6669L100,85.6669" stroke="hsl(217,100%,74%)" stroke-width="28.6663"/><path d="M9.5223,57.1195h37.9385v19.293h-37.9385z" fill="hsl(349,100%,50%)"/><path class="s-a-9" d="M28.4915,57.1195L28.4915,76.4125" stroke="hsl(99,100%,84%)" stroke-width="37.9385"/><path d="M91.2831,0h8.7169v71.3337h-8.7169z" fill="hsl(83,100%,76%)"/><path class="s-a-10" d="M91.2831,35.6669L100,35.6669" stroke="hsl(290,100%,24%)" stroke-width="71.3337"/><path d="M9.5223,26.7889h5.6908v30.3306h-5.6908z" fill="hsl(131,100%,20%)"/><path class="s-a-11" d="M9.5223,41.9542L15.213,41.9542" stroke="hsl(234,100%,23%)" stroke-width="30.3306"/><path d="M74.6845,58.183h16.5986v13.1507h-16.5986z" fill="hsl(35,100%,51%)"/><path class="s-a-12" d="M82.9838,58.183L82.9838,71.3337" stroke="hsl(291,100%,14%)" stroke-width="16.5986"/><path d="M47.4607,37.4503h4.9612v49.7997h-4.9612z" fill="hsl(64,100%,28%)"/><path class="s-a-13" d="M47.4607,62.3502L52.422,62.3502" stroke="hsl(261,100%,71%)" stroke-width="49.7997"/><path d="M15.213,26.7889h11.8308v30.3306h-11.8308z" fill="hsl(95,100%,14%)"/><path class="s-a-14" d="M21.1284,26.7889L21.1284,57.1195" stroke="hsl(180,100%,72%)" stroke-width="11.8308"/><path d="M63.4818,69.7086h11.2027v30.2914h-11.2027z" fill="hsl(166,100%,60%)"/><path class="s-a-15" d="M63.4818,84.8543L74.6845,84.8543" stroke="hsl(190,100%,33%)" stroke-width="30.2914"/><path d="M27.0438,26.7889h20.4169v30.3306h-20.4169z" fill="hsl(351,100%,61%)"/><path class="s-a-16" d="M37.2523,26.7889L37.2523,57.1195" stroke="hsl(59,100%,47%)" stroke-width="20.4169"/><path d="M84.7802,0h6.5029v58.183h-6.5029z" fill="hsl(108,100%,31%)"/><path class="s-a-17" d="M84.7802,29.0915L91.2831,29.0915" stroke="hsl(2,100%,85%)" stroke-width="58.183"/><path d="M0,6.3585h63.4818v8.6415h-63.4818z" fill="hsl(71,100%,88%)"/><path class="s-a-18" d="M0,10.6792L63.4818,10.6792" stroke="hsl(100,100%,75%)" stroke-width="8.6415"/><path d="M0,94.8526h63.4818v5.1474h-63.4818z" fill="hsl(209,100%,87%)"/><path class="s-a-19" d="M0,97.4263L63.4818,97.4263" stroke="hsl(108,100%,20%)" stroke-width="5.1474"/><path d="M52.422,37.4503h11.0599v49.7997h-11.0599z" fill="hsl(161,100%,49%)"/><path class="s-a-20" d="M52.422,62.3502L63.4818,62.3502" stroke="hsl(338,100%,89%)" stroke-width="49.7997"/></svg>