<svg viewBox="0 0 100 100" xmlns="http://www.w3.org/2000/svg" author="Kirill Ateev" license="CC BY-ND 4.0"><style>path,circle{cursor:pointer;transition:opacity 1s}path:hover,circle:hover{opacity:0}</style><rect width="100" height="100" fill="white"/><rect x="10" y="10" width="80" height="80" fill="hsl(352,100%,90%)"/><path d="M 49.38,13.94 C 82.33,34.74 67.64,69.48 51.00,18.27 " stroke="black" fill="none" stroke-width="1.8" stroke-dasharray="4,3" stroke-dashoffset="7"><animate attributeName="stroke-dashoffset" from="7" to="0" dur="10s" repeatCount="indefinite"/></path><path d="M 90.53,34.88 C 26.39,91.30 89.90,58.67 63.74,52.37 C 49.10,53.97 28.18,10.57 19.44,82.77 " stroke="black" fill="none" stroke-width="1.9" stroke-dasharray="3,3" stroke-dashoffset="6"><animate attributeName="stroke-dashoffset" from="6" to="0" dur="11s" repeatCount="indefinite"/></path><path d="M 81.87,93.14 C 84.02,14.22 88.41,26.10 78.28,62.61 C 87.61,64.13 18.64,49.97 11.20,50.09 " stroke="black" fill="none" stroke-width="1.7" stroke-dasharray="4,2" stroke-dashoffset="6"><animate attributeName="stroke-dashoffset" from="6" to="0" dur="8s" repeatCount="indefinite"/></path><path d="M 80.11,63.01 C 72.57,21.08 52.03,75.91 72.75,72.31 " stroke="black" fill="none" stroke-width="1.7" stroke-dasharray="2,1" stroke-dashoffset="3"><animate attributeName="stroke-dashoffset" from="3" to="0" dur="24s" repeatCount="indefinite"/></path><path d="M 77.83,71.89 C 23.33,58.30 25.21,17.61 59.37,24.23 " stroke="black" fill="none" stroke-width="1.7" stroke-dasharray="3,3" stroke-dashoffset="6"><animate attributeName="stroke-dashoffset" from="6" to="0" dur="30s" repeatCount="indefinite"/></path><path d="M 65.16,73.21 C 41.52,37.75 56.88,9.74 63.14,60.38 C 36.83,44.13 6.95,70.76 13.51,67.96 " stroke="black" fill="none" stroke-width="1.0" stroke-dasharray="2,2" stroke-dashoffset="4"><animate attributeName="stroke-dashoffset" from="4" to="0" dur="6s" repeatCount="indefinite"/></path></svg>