<svg viewBox="0 0 100 100" xmlns="http://www.w3.org/2000/svg" author="Kirill Ateev" license="CC BY-ND 4.0"><style>path,circle{cursor:pointer;transition:opacity 1s}path:hover,circle:hover{opacity:0}</style><rect width="100" height="100" fill="white"/><rect x="10" y="10" width="80" height="80" fill="hsl(219,100%,90%)"/><path d="M 70.98,64.29 C 9.61,11.06 30.03,24.53 87.16,54.36 C 62.37,88.76 80.93,6.81 33.78,81.13 " stroke="white" fill="none" stroke-width="1.5" stroke-dasharray="3,3" stroke-dashoffset="6"><animate attributeName="stroke-dashoffset" from="6" to="0" dur="9s" repeatCount="indefinite"/></path><path d="M 5.93,53.27 C 54.23,28.88 48.66,29.35 47.27,70.92 C 15.56,83.10 65.03,16.29 66.93,94.05 " stroke="black" fill="none" stroke-width="2.1" stroke-dasharray="3,1" stroke-dashoffset="4"><animate attributeName="stroke-dashoffset" from="4" to="0" dur="14s" repeatCount="indefinite"/></path><path d="M 10.29,41.27 C 79.49,37.21 47.22,9.99 62.78,30.22 C 10.42,27.42 87.12,16.56 68.08,6.58 " stroke="black" fill="none" stroke-width="1.7" stroke-dasharray="4,3" stroke-dashoffset="7"><animate attributeName="stroke-dashoffset" from="7" to="0" dur="24s" repeatCount="indefinite"/></path><path d="M 17.30,82.75 C 54.92,71.60 14.67,62.18 45.12,85.48 " stroke="black" fill="none" stroke-width="0.7" stroke-dasharray="5,1" stroke-dashoffset="6"><animate attributeName="stroke-dashoffset" from="6" to="0" dur="5s" repeatCount="indefinite"/></path><path d="M 84.33,50.36 C 19.80,83.37 84.43,73.58 23.66,65.38 " stroke="black" fill="none" stroke-width="1.1" stroke-dasharray="3,3" stroke-dashoffset="6"><animate attributeName="stroke-dashoffset" from="6" to="0" dur="34s" repeatCount="indefinite"/></path><path d="M 59.77,73.05 C 60.81,71.50 34.24,32.62 94.93,72.34 " stroke="black" fill="none" stroke-width="1.4" stroke-dasharray="4,2" stroke-dashoffset="6"><animate attributeName="stroke-dashoffset" from="6" to="0" dur="25s" repeatCount="indefinite"/></path><path d="M 50.90,64.00 C 39.68,47.85 46.96,81.03 43.47,71.01 C 7.38,40.42 26.74,72.64 72.06,40.54 " stroke="white" fill="none" stroke-width="1.7" stroke-dasharray="4,2" stroke-dashoffset="6"><animate attributeName="stroke-dashoffset" from="6" to="0" dur="20s" repeatCount="indefinite"/></path><path d="M 61.57,61.42 C 94.24,42.95 50.92,57.48 41.89,61.23 " stroke="black" fill="none" stroke-width="1.6" stroke-dasharray="3,2" stroke-dashoffset="5"><animate attributeName="stroke-dashoffset" from="5" to="0" dur="18s" repeatCount="indefinite"/></path><path d="M 23.61,5.92 C 41.04,84.92 12.02,35.29 90.41,47.71 " stroke="black" fill="none" stroke-width="1.3" stroke-dasharray="2,2" stroke-dashoffset="4"><animate attributeName="stroke-dashoffset" from="4" to="0" dur="16s" repeatCount="indefinite"/></path><path d="M 20.45,26.02 C 72.55,54.03 48.50,82.83 51.74,86.03 " stroke="black" fill="none" stroke-width="0.8" stroke-dasharray="2,2" stroke-dashoffset="4"><animate attributeName="stroke-dashoffset" from="4" to="0" dur="25s" repeatCount="indefinite"/></path><path d="M 83.78,59.29 C 47.10,69.59 24.52,85.85 22.22,25.57 " stroke="black" fill="none" stroke-width="0.8" stroke-dasharray="4,4" stroke-dashoffset="8"><animate attributeName="stroke-dashoffset" from="8" to="0" dur="18s" repeatCount="indefinite"/></path></svg>