<svg viewBox="0 0 100 100" xmlns="http://www.w3.org/2000/svg" author="Kirill Ateev" license="CC BY-ND 4.0"><style>path,circle{cursor:pointer;transition:opacity 1s}path:hover,circle:hover{opacity:0}</style><rect width="100" height="100" fill="white"/><rect x="10" y="10" width="80" height="80" fill="hsl(93,100%,90%)"/><path d="M 23.05,8.20 C 42.33,12.33 68.87,83.18 28.14,30.65 " stroke="black" fill="none" stroke-width="1.5" stroke-dasharray="3,3" stroke-dashoffset="6"><animate attributeName="stroke-dashoffset" from="6" to="0" dur="9s" repeatCount="indefinite"/></path><path d="M 92.90,35.28 C 65.80,48.01 43.82,37.86 26.10,72.94 C 47.72,56.74 58.43,67.61 54.45,92.71 " stroke="black" fill="none" stroke-width="2.2" stroke-dasharray="3,1" stroke-dashoffset="4"><animate attributeName="stroke-dashoffset" from="4" to="0" dur="14s" repeatCount="indefinite"/></path><path d="M 75.47,84.88 C 66.02,91.58 67.27,44.05 64.18,19.83 " stroke="black" fill="none" stroke-width="2.2" stroke-dasharray="5,5" stroke-dashoffset="10"><animate attributeName="stroke-dashoffset" from="10" to="0" dur="28s" repeatCount="indefinite"/></path><path d="M 82.75,38.42 C 70.86,12.48 34.76,61.95 11.00,29.66 " stroke="black" fill="none" stroke-width="5.1" stroke-dasharray="4,3" stroke-dashoffset="7"><animate attributeName="stroke-dashoffset" from="7" to="0" dur="31s" repeatCount="indefinite"/></path><path d="M 93.91,53.74 C 8.36,64.64 52.83,40.03 68.18,91.95 C 36.32,72.17 89.53,32.55 53.94,40.35 " stroke="black" fill="none" stroke-width="1.9" stroke-dasharray="5,3" stroke-dashoffset="8"><animate attributeName="stroke-dashoffset" from="8" to="0" dur="25s" repeatCount="indefinite"/></path><path d="M 40.14,16.05 C 89.58,57.57 12.24,67.91 44.67,91.61 " stroke="black" fill="none" stroke-width="1.1" stroke-dasharray="5,4" stroke-dashoffset="9"><animate attributeName="stroke-dashoffset" from="9" to="0" dur="28s" repeatCount="indefinite"/></path><path d="M 54.31,75.26 C 51.69,77.66 13.46,56.69 63.78,61.14 " stroke="black" fill="none" stroke-width="0.8" stroke-dasharray="2,2" stroke-dashoffset="4"><animate attributeName="stroke-dashoffset" from="4" to="0" dur="29s" repeatCount="indefinite"/></path><path d="M 82.95,11.25 C 49.69,24.17 16.67,17.41 23.42,28.02 " stroke="black" fill="none" stroke-width="2.1" stroke-dasharray="3,3" stroke-dashoffset="6"><animate attributeName="stroke-dashoffset" from="6" to="0" dur="16s" repeatCount="indefinite"/></path><path d="M 5.10,18.41 C 21.07,69.28 36.32,26.12 89.11,80.39 " stroke="black" fill="none" stroke-width="2.0" stroke-dasharray="5,2" stroke-dashoffset="7"><animate attributeName="stroke-dashoffset" from="7" to="0" dur="13s" repeatCount="indefinite"/></path><path d="M 28.43,18.24 C 90.57,75.01 59.70,30.83 66.63,84.83 " stroke="black" fill="none" stroke-width="0.7" stroke-dasharray="5,2" stroke-dashoffset="7"><animate attributeName="stroke-dashoffset" from="7" to="0" dur="16s" repeatCount="indefinite"/></path><path d="M 31.09,13.70 C 47.14,82.60 18.83,25.89 48.92,85.71 C 61.13,47.08 9.80,26.12 16.45,89.41 " stroke="black" fill="none" stroke-width="1.8" stroke-dasharray="4,2" stroke-dashoffset="6"><animate attributeName="stroke-dashoffset" from="6" to="0" dur="23s" repeatCount="indefinite"/></path></svg>