<svg xmlns="http://www.w3.org/2000/svg" aria-label="Field by Kirill Ateev" style="display:block" viewBox="0 0 100 100" width="100%" height="100%" preserveAspectRatio="xMidYMid meet" role="img"><!-- Field. Author: Kirill Ateev. Links: www.kirillateev.art. Date: May 2026. License: CC BY-ND 4.0. --><defs><linearGradient id="a" x1=".501" x2=".959" y1=".423" y2=".595"><stop offset="0%" stop-color="hsl(219, 100%, 65%)"/><stop offset="100%" stop-color="hsl(22, 100%, 53%)"/></linearGradient><linearGradient id="b" x1=".382" x2=".625" y1=".131" y2=".589"><stop offset="0%" stop-color="hsl(63, 100%, 24%)"/><stop offset="100%" stop-color="hsl(159, 100%, 8%)"/></linearGradient><linearGradient id="c" x1=".169" x2=".511" y1=".231" y2=".677"><stop offset="0%" stop-color="hsl(294, 100%, 97%)"/><stop offset="100%" stop-color="hsl(330, 100%, 82%)"/></linearGradient><linearGradient id="d" x1=".068" x2=".441" y1=".101" y2=".265"><stop offset="0%" stop-color="hsl(211, 100%, 23%)"/><stop offset="100%" stop-color="hsl(219, 100%, 65%)"/></linearGradient><linearGradient id="e" x1=".512" x2=".582" y1=".497" y2=".512"><stop offset="0%" stop-color="hsl(223, 100%, 6%)"/><stop offset="100%" stop-color="hsl(357, 100%, 33%)"/></linearGradient><linearGradient id="f" x1=".606" x2=".057" y1=".911" y2=".865"><stop offset="0%" stop-color="hsl(87, 100%, 15%)"/><stop offset="100%" stop-color="hsl(86, 100%, 56%)"/></linearGradient><linearGradient id="g" x1=".932" x2=".924" y1=".875" y2=".471"><stop offset="0%" stop-color="hsl(96, 100%, 0%)"/><stop offset="100%" stop-color="hsl(152, 100%, 10%)"/></linearGradient><linearGradient id="h" x1=".275" x2=".034" y1=".267" y2=".525"><stop offset="0%" stop-color="hsl(129, 100%, 20%)"/><stop offset="100%" stop-color="hsl(105, 100%, 50%)"/></linearGradient><linearGradient id="i" x1=".144" x2=".976" y1=".482" y2=".719"><stop offset="0%" stop-color="hsl(324, 100%, 39%)"/><stop offset="100%" stop-color="hsl(325, 100%, 93%)"/></linearGradient><linearGradient id="j" x1=".218" x2=".844" y1=".154" y2=".968"><stop offset="0%" stop-color="hsl(108, 100%, 29%)"/><stop offset="100%" stop-color="hsl(186, 100%, 97%)"/></linearGradient><linearGradient id="k" x1=".281" x2=".423" y1=".971" y2=".389"><stop offset="0%" stop-color="hsl(320, 100%, 97%)"/><stop offset="100%" stop-color="hsl(210, 100%, 34%)"/></linearGradient><linearGradient id="l" x1=".095" x2=".558" y1=".062" y2=".794"><stop offset="0%" stop-color="hsl(164, 100%, 37%)"/><stop offset="100%" stop-color="hsl(217, 100%, 15%)"/></linearGradient><linearGradient id="m" x1=".27" x2=".767" y1=".724" y2=".858"><stop offset="0%" stop-color="hsl(29, 100%, 92%)"/><stop offset="100%" stop-color="hsl(242, 100%, 100%)"/></linearGradient><linearGradient id="n" x1=".259" x2=".393" y1=".081" y2=".732"><stop offset="0%" stop-color="hsl(35, 100%, 13%)"/><stop offset="100%" stop-color="hsl(224, 100%, 62%)"/></linearGradient><linearGradient id="o" x1=".898" x2=".252" y1=".829" y2=".843"><stop offset="0%" stop-color="hsl(262, 100%, 65%)"/><stop offset="100%" stop-color="hsl(14, 100%, 32%)"/></linearGradient><linearGradient id="p" x1=".138" x2="0" y1=".717" y2=".549"><stop offset="0%" stop-color="hsl(292, 100%, 78%)"/><stop offset="100%" stop-color="hsl(335, 100%, 67%)"/></linearGradient></defs><path fill="hsl(0,0%,0%,0.5)" d="M0 0h100v100H0z"/><path fill="url(#a)" d="M100 46.848v8.578L85.204 43.451l-.486-.557-.476-.555-.464-.552-.454-.55-.443-.548-.432-.545-.421-.542-.411-.54-.4-.538-.388-.535-.379-.532-.367-.53-.356-.528-.346-.525-.335-.523-.324-.52-.313-.517-.302-.516-.291-.512-.281-.511-.27-.507-.259-.506-.248-.502-.238-.501-.226-.497-.216-.496-.205-.493-.194-.49-.183-.488-.173-.485-.162-.483-.15-.481-.14-.477-.13-.476-.118-.473-.108-.47-.096-.468-.086-.466-.075-.463-.065-.461-.053-.458-.043-.455-.032-.453-.021-.451-.01-.448.001-.446.011-.443.023-.441.033-.438.044-.436.054-.433.066-.431.076-.428.087-.426.098-.423.109-.421.12-.419.13-.416.142-.413.152-.411.163-.408.173-.406.092-.2.17.298.173.299.173.299.175.301.177.301.178.302.179.302.181.303.183.304.184.305.185.306.187.306.188.307.19.308.191.308.193.309.195.31.195.311.198.311.198.312.201.313.201.314.204.314.204.315.206.316.208.316.209.318.211.318.212.318.213.32.215.32.217.321.218.322.219.322.221.323.223.324.224.325.225.325.227.327.228.326.23.328.232.328.232.329.235.33.236.331.237.331.239.332.24.333.241.333.244.335.244.335.246.335.248.337.249.337.251.338.252.339.253.339.255.34.257.341.258.342.259.342.261.343.263.344.264.344.265.346.267.346.268.346.27.348.271.348.273.349.275.35.275.35.278.352.278.351.281.353.281.354.283.354.285.355.286.355.288.357.289.357.29.357.292.359.294.359.295.36.297.361.298.362.299.362.301.363.302.364.304.364.306.365.306.366.309.367.31.367.311.368.313.369.314.37.316.37Z" class=""/><path fill="url(#b)" d="m76.823 11.147.213-.332.26-.386.271-.383.282-.381.293-.379.303-.376.315-.374.325-.371.336-.369.347-.366.358-.364.368-.361.379-.359.39-.356.401-.354.412-.352.423-.349.433-.346.444-.344.455-.341.466-.339.477-.337.488-.334.498-.331.509-.329.52-.327.531-.324.541-.321.553-.32.563-.316.574-.314.585-.312h3.082l-.227.255-.222.259-.217.263-.211.266-.206.27-.201.274-.195.277-.189.28-.185.285-.179.288-.173.292-.168.295-.163.299-.157.302-.152.306-.147.31-.141.314-.136.317-.13.32-.125.325-.12.328-.114.331-.109.335-.103.339-.098.343-.093.346-.087.349-.082.354-.076.357-.071.36-.066.364-.06.368-.055.372-.05.375-.044.379-.039.382-.033.386-.007.096Z"/><path fill="url(#c)" d="m90.713 27.94.073.237.167.521.171.523.177.528.183.531.187.535.194.538.198.542.204.546.21.549.214.553.22.557.226.56.231.564.236.567.242.571.247.575.253.578.257.582.264.586.268.589.274.593.28.596.285.6.29.604.296.607.301.611.306.615-.273-.327-.302-.364-.301-.363-.299-.362-.298-.362-.297-.361-.295-.36-.294-.359-.292-.359-.29-.357-.289-.357-.288-.357-.286-.355-.285-.355-.283-.354-.281-.354-.281-.353-.278-.351-.278-.352-.275-.35-.275-.35-.273-.349-.271-.348-.27-.348-.268-.346-.267-.346-.265-.346-.264-.344-.263-.344-.261-.343-.259-.342-.258-.342-.257-.341-.255-.34-.253-.339-.252-.339-.251-.338-.249-.337-.248-.337-.246-.335-.244-.335-.244-.335-.241-.333-.24-.333-.239-.332-.237-.331-.236-.331-.235-.33-.232-.329-.232-.328-.23-.328-.228-.326-.227-.327-.225-.325-.224-.325-.223-.324-.221-.323-.219-.322-.218-.322-.217-.321-.215-.32-.213-.32-.212-.318-.211-.318-.209-.318-.208-.316-.206-.316-.204-.315-.204-.314-.201-.314-.201-.313-.198-.312-.198-.311-.195-.311-.195-.31-.193-.309-.191-.308-.19-.308-.188-.307-.187-.306-.185-.306-.184-.305-.183-.304-.181-.303-.179-.302-.178-.302-.177-.301-.175-.301-.173-.299-.173-.299-.17-.298.093-.204.195-.401.207-.398.217-.396.227-.394.013-.021Z"/><path fill="url(#d)" d="m76.56 11.574.226-.37.037-.057 11.564.814-.021.294-.022.393-.017.397-.012.4-.007.404v.408l.004.411.01.415.015.419.021.422.026.426.031.43.037.433.042.437.048.44.053.444.058.448.064.451.069.455.074.459.08.462.086.466.09.469.096.473.102.477.107.48.112.484.118.488.123.491.128.495.134.498.14.503.144.505.15.51.156.513.087.279Z" class=""/><path fill="url(#e)" d="M93.218 0H100v46.848l-.317-.371-.316-.37-.314-.37-.313-.369-.311-.368-.31-.367-.309-.367-.306-.366-.306-.365-.031-.037-.306-.615-.301-.611-.296-.607-.29-.604-.285-.6-.28-.596-.274-.593-.268-.589-.264-.586-.257-.582-.253-.578-.247-.575-.242-.571-.236-.567-.231-.564-.226-.56-.22-.557-.214-.553-.21-.549-.204-.546-.198-.542-.194-.538-.187-.535-.183-.531-.177-.528-.171-.523-.167-.521-.16-.516-.156-.513-.15-.51-.144-.505-.14-.503-.134-.498-.128-.495-.123-.491-.118-.488-.112-.484-.107-.48-.102-.477-.096-.473-.09-.469-.086-.466-.08-.462-.074-.459-.069-.455-.064-.451-.058-.448-.053-.444-.048-.44-.042-.437-.037-.433-.031-.43-.026-.426-.021-.422-.015-.419-.01-.415-.004-.411v-.408l.007-.404.012-.4.017-.397.022-.393.028-.39.033-.386.039-.382.044-.379.05-.375.055-.372.06-.368.066-.364.071-.36.076-.357.082-.354.087-.349.093-.346.098-.343.103-.339.109-.335.114-.331.12-.328.125-.325.13-.32.136-.317.141-.314.147-.31.152-.306.157-.302.163-.299.168-.295.173-.292.179-.288.185-.285.189-.28.195-.277.201-.274.206-.27.211-.266.217-.263.222-.259Z"/><path fill="url(#f)" d="M85.204 43.451 31.514 0h58.622l-.585.312-.574.314-.563.316-.553.32-.541.321-.531.324-.52.327-.509.329-.498.331-.488.334-.477.337-.466.339-.455.341-.444.344-.433.346-.423.349-.412.352-.401.354-.39.356-.379.359-.368.361-.358.364-.347.366-.336.369-.325.371-.315.374-.303.376-.293.379-.282.381-.271.383-.26.386-.25.389-.239.391-.227.394-.217.396-.207.398-.195.401-.185.404-.173.406-.163.408-.152.411-.142.413-.13.416-.12.419-.109.421-.098.423-.087.426-.076.428-.066.431-.054.433-.044.436-.033.438-.023.441-.011.443-.001.446.01.448.021.451.032.453.043.455.053.458.065.461.075.463.086.466.096.468.108.47.118.473.13.476.14.477.15.481.162.483.173.485.183.488.194.49.205.493.216.496.226.497.238.501.248.502.259.506.27.507.281.511.291.512.302.516.313.517.324.52.335.523.346.525.356.528.367.53.379.532.388.535.4.538.411.54.421.542.432.545.443.548.454.55.464.552.476.555Z"/><path fill="url(#g)" d="m54.029 18.221 38.503 31.161-26.004 33.092Z"/><path fill="url(#h)" d="m45.811 11.57 8.218 6.651 12.499 64.253-5.256 6.688L9.995.099l.81 1.197.8 1.176.791 1.154.781 1.132.773 1.11.764 1.089.754 1.066.746 1.045.736 1.022.727 1.001.718.979.709.957.7.935.691.913.682.892.672.869.663.848.655.826.645.804.636.782.627.76.618.738.608.716.6.695.591.672.581.651.572.629.563.607.555.585.544.563.536.542.527.519.518.498.508.475.5.454.49.432.481.41.472.388.463.367.454.344.445.323.435.3.427.279.417.257.408.235.399.213.39.192.381.169.372.148.363.125.354.104.344.082.335.06.327.038.317.016.308-.005.299-.028.29-.049.28-.071.272-.094.262-.115.254-.136.244-.159.235-.181.226-.202.217-.225.208-.246.199-.268.189-.29.181-.312.171-.334.162-.356.153-.377.144-.4.135-.421.126-.443.117-.465.107-.487.099-.509.089-.531.08-.552.072-.575.062-.596.053-.618.043-.64.035-.662.026-.684.016-.706.007-.727-.001-.75-.011-.771-.02-.793-.029-.816-.039-.837-.047-.858-.056-.881-.066-.903-.075-.924-.083-.947Z"/><path fill="url(#i)" d="M9.995.099 9.939 0h21.575l14.297 11.57.093.968.083.947.075.924.066.903.056.881.047.858.039.837.029.816.02.793.011.771.001.75-.007.727-.016.706-.026.684-.035.662-.043.64-.053.618-.062.596-.072.575-.08.552-.089.531-.099.509-.107.487-.117.465-.126.443-.135.421-.144.4-.153.377-.162.356-.171.334-.181.312-.189.29-.199.268-.208.246-.217.225-.226.202-.235.181-.244.159-.254.136-.262.115-.272.094-.28.071-.29.049-.299.028-.308.005-.317-.016-.327-.038-.335-.06-.344-.082-.354-.104-.363-.125-.372-.148-.381-.169-.39-.192-.399-.213-.408-.235-.417-.257-.427-.279-.435-.3-.445-.323-.454-.344-.463-.367-.472-.388-.481-.41-.49-.432-.5-.454-.508-.475-.518-.498-.527-.519-.536-.542-.544-.563-.555-.585-.563-.607-.572-.629-.581-.651-.591-.672-.6-.695-.608-.716-.618-.738-.627-.76-.636-.782-.645-.804-.655-.826-.663-.848-.672-.869-.682-.892-.691-.913-.7-.935-.709-.957-.718-.979-.727-1.001-.736-1.022-.746-1.045-.754-1.066-.764-1.089-.773-1.11-.781-1.132-.791-1.154-.8-1.176Z"/><path fill="url(#j)" d="M92.532 49.382 100 55.426V100H67.512l-6.24-10.838Z"/><path fill="url(#k)" d="M6.118 0h3.821l22.267 38.676-13.197 9.326Z"/><path fill="url(#l)" d="M19.009 48.002 0 61.435V0h6.118Z"/><path fill="url(#m)" d="M50.474 70.406 67.512 100H11.091l.072-.08.077-.085.084-.09.09-.095.096-.1.103-.104.109-.109.115-.114.121-.119.127-.124.134-.129.14-.133.146-.139.153-.143.158-.148.165-.153.171-.158.178-.162.183-.168.19-.172.196-.177.202-.182.209-.187.215-.191.221-.197.227-.201.233-.206.24-.211.246-.216.252-.22.259-.226.264-.23.271-.235.277-.241.119-.102.554-.001.551-.006.545-.011.542-.015.536-.021.533-.025.528-.03.523-.035.519-.04.514-.044.51-.05.506-.054.501-.059.496-.064.493-.069.487-.074.483-.078.479-.083.474-.089.47-.093.465-.097.461-.103.456-.107.452-.113.448-.117.443-.122.438-.127.434-.131.429-.137.426-.141.42-.146.416-.151.412-.156.407-.161.403-.165.398-.171.394-.175.389-.18.385-.185.38-.19.376-.194.371-.199.367-.205.363-.209.358-.214.353-.218.349-.224.345-.228.34-.233.336-.238.331-.243.326-.248.323-.253.317-.257.314-.262.309-.267.304-.272.3-.277.295-.282.291-.286.287-.291.282-.296.277-.301.273-.306.269-.31.264-.316.259-.32.256-.325.25-.33.247-.335.241-.34.238-.344.232-.349.229-.354.224-.359.219-.364.215-.369.21-.373.206-.378.202-.384.197-.388.193-.392.188-.398.183-.402.18-.408.174-.412.17-.417.166-.422.162-.426.156-.432.153-.436.148-.441.143-.446.139-.451.134-.456.13-.46.126-.466.121-.47.117-.475Z"/><path fill="url(#n)" d="m35.467 90.821-.013.006-.385.185-.389.18-.394.175-.398.171-.403.165-.407.161-.412.156-.416.151-.42.146-.426.141-.429.137-.434.131-.438.127-.443.122-.448.117-.452.113-.456.107-.461.103-.465.097-.47.093-.474.089-.479.083-.483.078-.487.074-.493.069-.496.064-.501.059-.506.054-.51.05-.514.044-.519.04-.523.035-.528.03-.533.025-.536.021-.542.015-.545.011-.551.006-.554.001.165-.142.289-.25.296-.255.302-.259.308-.264.315-.269.321-.274.327-.279.333-.284.339-.288.346-.293.352-.299.358-.303.365-.307.37-.313.377-.318.383-.322.39-.327.395-.332.402-.337.408-.342.415-.346.42-.352.427-.356.433-.361.439-.366.446-.371.451-.375.458-.381.465-.385.47-.39.477-.395.483-.4.489-.405.495-.409.502-.414.508-.42.514-.424.52-.429.527-.433.532-.439.539-.443.546-.449.551-.453.558-.458.564-.462.57-.468.576-.472.583-.478.589-.482.595-.487.601-.492.608-.496.614-.502.62-.506.626-.511.633-.516.639-.521.645-.526.651-.531.657-.535.664-.54.67-.545.676-.55.683-.555.689-.56 1.381 2.399-.112.48-.117.475-.019.073-.346.277-.342.275-.338.273-.334.272-.33.27-.326.268-.322.267-.318.265-.314.263-.31.262-.306.259-.302.259-.298.256-.294.255-.289.253-.286.252-.282.25-.278.248-.274.247-.27.244-.266.244-.262.241-.257.24-.254.238-.25.237-.246.235-.242.233-.237.231-.234.23-.23.228-.226.227-.221.224-.218.224-.214.221-.21.22-.205.218-.202.216-.198.215-.194.213-.189.212-.186.209-.182.208-.177.207-.174.205-.17.203-.165.201-.162.2-.157.198-.154.196-.15.195-.145.193-.142.191-.137.19-.134.188-.129.186-.126.185-.122.183-.117.181-.114.18-.109.178-.106.176-.101.175-.098.173-.093.171-.09.17-.085.168-.081.166-.078.164-.073.163-.07.162-.065.159-.062.158-.057.156-.053.155-.05.153-.045.151-.041.15-.038.147-.033.147-.029.144-.026.143-.021.141-.017.14-.014.138-.009.136-.005.134-.001.133.002.131.007.13.011.127.015.127.018.124.023.123.027.121.031.119.034.118.039.116.043.115.047.113Z"/><path fill="url(#o)" d="m50.226 71.434-.102.397-.126.466-.13.46-.134.456-.139.451-.143.446-.148.441-.153.436-.156.432-.162.426-.166.422-.17.417-.174.412-.18.408-.183.402-.188.398-.193.392-.197.388-.202.384-.206.378-.21.373-.215.369-.219.364-.224.359-.229.354-.232.349-.238.344-.241.34-.247.335-.25.33-.256.325-.259.32-.264.316-.269.31-.273.306-.277.301-.282.296-.287.291-.291.286-.295.282-.3.277-.304.272-.309.267-.314.262-.317.257-.323.253-.326.248-.331.243-.336.238-.34.233-.345.228-.349.224-.353.218-.358.214-.363.209-.367.205-.371.199-.376.194-.367.184-.051-.111-.047-.113-.043-.115-.039-.116-.034-.118-.031-.119-.027-.121-.023-.123-.018-.124-.015-.127-.011-.127-.007-.13-.002-.131.001-.133.005-.134.009-.136.014-.138.017-.14.021-.141.026-.143.029-.144.033-.147.038-.147.041-.15.045-.151.05-.153.053-.155.057-.156.062-.158.065-.159.07-.162.073-.163.078-.164.081-.166.085-.168.09-.17.093-.171.098-.173.101-.175.106-.176.109-.178.114-.18.117-.181.122-.183.126-.185.129-.186.134-.188.137-.19.142-.191.145-.193.15-.195.154-.196.157-.198.162-.2.165-.201.17-.203.174-.205.177-.207.182-.208.186-.209.189-.212.194-.213.198-.215.202-.216.205-.218.21-.22.214-.221.218-.224.221-.224.226-.227.23-.228.234-.23.237-.231.242-.233.246-.235.25-.237.254-.238.257-.24.262-.241.266-.244.27-.244.274-.247.278-.248.282-.25.286-.252.289-.253.294-.255.298-.256.302-.259.306-.259.31-.262.314-.263.318-.265.322-.267.326-.268.33-.27.334-.272.338-.273.342-.275Z"/><path fill="url(#p)" d="M11.091 100H0V61.435l32.206-22.759 16.887 29.331-.689.56-.683.555-.676.55-.67.545-.664.54-.657.535-.651.531-.645.526-.639.521-.633.516-.626.511-.62.506-.614.502-.608.496-.601.492-.595.487-.589.482-.583.478-.576.472-.57.468-.564.462-.558.458-.551.453-.546.449-.539.443-.532.439-.527.433-.52.429-.514.424-.508.42-.502.414-.495.409-.489.405-.483.4-.477.395-.47.39-.465.385-.458.381-.451.375-.446.371-.439.366-.433.361-.427.356-.42.352-.415.346-.408.342-.402.337-.395.332-.39.327-.383.322-.377.318-.37.313-.365.307-.358.303-.352.299-.346.293-.339.288-.333.284-.327.279-.321.274-.315.269-.308.264-.302.259-.296.255-.289.25-.284.244-.277.241-.271.235-.264.23-.259.226-.252.22-.246.216-.24.211-.233.206-.227.201-.221.197-.215.191-.209.187-.202.182-.196.177-.19.172-.183.168-.178.162-.171.158-.165.153-.158.148-.153.143-.146.139-.14.133-.134.129-.127.124-.121.119-.115.114-.109.109-.103.104-.096.1-.09.095-.084.09-.077.085Z"/></svg>