<svg xmlns="http://www.w3.org/2000/svg" viewBox="0 0 100 100" preserveAspectRatio="xMidYMid meet" width="100%" height="100%" style="display: block;"><!-- Author: Kirill Ateev. Links: www.kirillateev.art, www.ateev.art. Date: September 2025. License: CC BY-ND 4.0. --><rect x="0" y="0" width="50" height="50" fill="hsl(219, 100%, 055%)" /><rect x="50" y="0" width="50" height="50" fill="hsl(264, 100%, 031%)" /><rect x="0" y="50" width="50" height="50" fill="hsl(232, 100%, 044%)" /><rect x="50" y="50" width="50" height="50" fill="hsl(073, 100%, 092%)" /><path d="M 78.24 17 L 64.84 76.43 L 71.56 78.99 L 45.62 18.69 L 66.7 45.91 L 40.64 54.12 " fill="none" stroke="black" stroke-width="4" stroke-linejoin="round"></path> <path d="M 78.24 17 L 64.84 76.43 L 71.56 78.99 L 45.62 18.69 L 66.7 45.91 L 40.64 54.12 " fill="none" stroke="hsl(7,100%,42%)" stroke-width="1.86" stroke-dasharray="20.79,4.75" stroke-linejoin="round"><animate attributeName="stroke-dashoffset" by="25.55" dur="0.49s" repeatCount="indefinite" /></path> <path d="M 78.24 17 L 64.84 76.43 L 71.56 78.99 L 45.62 18.69 L 66.7 45.91 L 40.64 54.12 " fill="none" stroke="hsl(325,100%,57%)" stroke-width="2.49" stroke-dasharray="20.79,4.75" stroke-linejoin="round"><animate attributeName="stroke-dashoffset" by="25.55" dur="0.54s" repeatCount="indefinite" /></path> <path d="M 78.24 17 L 64.84 76.43 L 71.56 78.99 L 45.62 18.69 L 66.7 45.91 L 40.64 54.12 " fill="none" stroke="hsl(90,100%,39%)" stroke-width="1.11" stroke-dasharray="20.79,4.75" stroke-linejoin="round"><animate attributeName="stroke-dashoffset" by="25.55" dur="0.71s" repeatCount="indefinite" /></path> </svg>