<svg xmlns="http://www.w3.org/2000/svg" viewBox="0 0 100 100" preserveAspectRatio="xMidYMid meet" width="100%" height="100%" style="display: block;"><!-- Author: Kirill Ateev. Links: www.kirillateev.art, www.ateev.art. Date: September 2025. License: CC BY-ND 4.0. --><rect x="0" y="0" width="50" height="50" fill="hsl(129, 100%, 089%)" /><rect x="50" y="0" width="50" height="50" fill="hsl(220, 100%, 071%)" /><rect x="0" y="50" width="50" height="50" fill="hsl(292, 100%, 058%)" /><rect x="50" y="50" width="50" height="50" fill="hsl(353, 100%, 041%)" /><path d="M 77.33 7.44 C 42.95 16.54, 39.18 47.25, 39.28 12.97 L 14.09 79.23 L 90.27 58.74 " fill="none" stroke="white" stroke-width="4" stroke-linejoin="round"></path> <path d="M 77.33 7.44 C 42.95 16.54, 39.18 47.25, 39.28 12.97 L 14.09 79.23 L 90.27 58.74 " fill="none" stroke="hsl(178,100%,64%)" stroke-width="1.23" stroke-dasharray="9.98,7.88" stroke-linejoin="round"><animate attributeName="stroke-dashoffset" by="17.86" dur="0.2s" repeatCount="indefinite" /></path> <path d="M 77.33 7.44 C 42.95 16.54, 39.18 47.25, 39.28 12.97 L 14.09 79.23 L 90.27 58.74 " fill="none" stroke="hsl(29,100%,62%)" stroke-width="2.36" stroke-dasharray="9.98,7.88" stroke-linejoin="round"><animate attributeName="stroke-dashoffset" by="17.86" dur="0.33s" repeatCount="indefinite" /></path> <path d="M 77.33 7.44 C 42.95 16.54, 39.18 47.25, 39.28 12.97 L 14.09 79.23 L 90.27 58.74 " fill="none" stroke="hsl(116,100%,57%)" stroke-width="2.17" stroke-dasharray="9.98,7.88" stroke-linejoin="round"><animate attributeName="stroke-dashoffset" by="17.86" dur="0.26s" repeatCount="indefinite" /></path> <path d="M 67.68 9.17 L 60.61 12.02 C 49.59 62.76, 28.02 66.42, 64.71 12.27 L 53.08 75.38 L 34.16 52.97 " fill="none" stroke="black" stroke-width="4" stroke-linejoin="round"></path> <path d="M 67.68 9.17 L 60.61 12.02 C 49.59 62.76, 28.02 66.42, 64.71 12.27 L 53.08 75.38 L 34.16 52.97 " fill="none" stroke="hsl(48,100%,56%)" stroke-width="2.91" stroke-dasharray="15.46,3.32" stroke-linejoin="round"><animate attributeName="stroke-dashoffset" by="18.77" dur="0.37s" repeatCount="indefinite" /></path> <path d="M 67.68 9.17 L 60.61 12.02 C 49.59 62.76, 28.02 66.42, 64.71 12.27 L 53.08 75.38 L 34.16 52.97 " fill="none" stroke="hsl(261,100%,28%)" stroke-width="1.66" stroke-dasharray="15.46,3.32" stroke-linejoin="round"><animate attributeName="stroke-dashoffset" by="18.77" dur="0.37s" repeatCount="indefinite" /></path> </svg>