<svg xmlns="http://www.w3.org/2000/svg" viewBox="0 0 100 100" preserveAspectRatio="xMidYMid meet" width="100%" height="100%" style="display: block;"><!-- Author: Kirill Ateev. Links: www.kirillateev.art, www.ateev.art. Date: September 2025. License: CC BY-ND 4.0. --><rect x="0" y="0" width="50" height="50" fill="hsl(195, 100%, 031%)" /><rect x="50" y="0" width="50" height="50" fill="hsl(259, 100%, 070%)" /><rect x="0" y="50" width="50" height="50" fill="hsl(214, 100%, 048%)" /><rect x="50" y="50" width="50" height="50" fill="hsl(093, 100%, 054%)" /><path d="M 86.38 50.15 C 50.12 27.74, 27.38 54.05, 20.01 22.52 L 12.34 65.17 L 66.55 37.61 L 65.42 56.22 " fill="none" stroke="black" stroke-width="4" stroke-linejoin="round"></path> <path d="M 86.38 50.15 C 50.12 27.74, 27.38 54.05, 20.01 22.52 L 12.34 65.17 L 66.55 37.61 L 65.42 56.22 " fill="none" stroke="hsl(325,100%,34%)" stroke-width="2.65" stroke-dasharray="12.24,6.12" stroke-linejoin="round"><animate attributeName="stroke-dashoffset" by="18.36" dur="0.48s" repeatCount="indefinite" /></path> <path d="M 86.38 50.15 C 50.12 27.74, 27.38 54.05, 20.01 22.52 L 12.34 65.17 L 66.55 37.61 L 65.42 56.22 " fill="none" stroke="hsl(48,100%,65%)" stroke-width="2.73" stroke-dasharray="12.24,6.12" stroke-linejoin="round"><animate attributeName="stroke-dashoffset" by="18.36" dur="0.45s" repeatCount="indefinite" /></path> </svg>