<svg xmlns="http://www.w3.org/2000/svg" viewBox="0 0 100 100" preserveAspectRatio="xMidYMid meet" width="100%" height="100%" style="display: block;"><!-- Author: Kirill Ateev. Links: www.kirillateev.art, www.ateev.art. Date: September 2025. License: CC BY-ND 4.0. --><rect x="0" y="0" width="33.333333" height="33.333333" fill="hsl(128, 100%, 002%)" /><rect x="33.333333" y="0" width="33.333333" height="33.333333" fill="hsl(340, 100%, 074%)" /><rect x="66.666667" y="0" width="33.333333" height="33.333333" fill="hsl(042, 100%, 088%)" /><rect x="0" y="33.333333" width="33.333333" height="33.333333" fill="hsl(000, 100%, 064%)" /><rect x="33.333333" y="33.333333" width="33.333333" height="33.333333" fill="hsl(206, 100%, 086%)" /><rect x="66.666667" y="33.333333" width="33.333333" height="33.333333" fill="hsl(180, 100%, 087%)" /><rect x="0" y="66.666667" width="33.333333" height="33.333333" fill="hsl(296, 100%, 090%)" /><rect x="33.333333" y="66.666667" width="33.333333" height="33.333333" fill="hsl(185, 100%, 041%)" /><rect x="66.666667" y="66.666667" width="33.333333" height="33.333333" fill="hsl(038, 100%, 069%)" /><path d="M 19.48 19.56 L 46.26 72.22 L 48.83 83.4 C 48.44 62.7, 85.52 19.83, 28.14 81.29 " fill="none" stroke="white" stroke-width="2.9" stroke-linejoin="round"></path> <path d="M 19.48 19.56 L 46.26 72.22 L 48.83 83.4 C 48.44 62.7, 85.52 19.83, 28.14 81.29 " fill="none" stroke="hsl(115,100%,86%)" stroke-width="0.96" stroke-dasharray="21.71,2.58" stroke-linejoin="round"><animate attributeName="stroke-dashoffset" by="24.29" dur="0.41s" repeatCount="indefinite" /></path> <path d="M 29.21 90 L 88.98 12.32 L 33.98 90.38 L 58.56 12.42 L 41.04 33.02 L 74.58 58.04 L 67.37 13.6 C 35.82 51.57, 36.86 82.89, 76.42 86.77 " fill="none" stroke="black" stroke-width="4" stroke-linejoin="round"></path> <path d="M 29.21 90 L 88.98 12.32 L 33.98 90.38 L 58.56 12.42 L 41.04 33.02 L 74.58 58.04 L 67.37 13.6 C 35.82 51.57, 36.86 82.89, 76.42 86.77 " fill="none" stroke="hsl(125,100%,86%)" stroke-width="1.87" stroke-dasharray="18.88,2.25" stroke-linejoin="round"><animate attributeName="stroke-dashoffset" by="21.13" dur="0.51s" repeatCount="indefinite" /></path> <path d="M 29.21 90 L 88.98 12.32 L 33.98 90.38 L 58.56 12.42 L 41.04 33.02 L 74.58 58.04 L 67.37 13.6 C 35.82 51.57, 36.86 82.89, 76.42 86.77 " fill="none" stroke="hsl(325,100%,25%)" stroke-width="2.19" stroke-dasharray="18.88,2.25" stroke-linejoin="round"><animate attributeName="stroke-dashoffset" by="21.13" dur="0.15s" repeatCount="indefinite" /></path> <path d="M 29.21 90 L 88.98 12.32 L 33.98 90.38 L 58.56 12.42 L 41.04 33.02 L 74.58 58.04 L 67.37 13.6 C 35.82 51.57, 36.86 82.89, 76.42 86.77 " fill="none" stroke="hsl(162,100%,89%)" stroke-width="1.06" stroke-dasharray="18.88,2.25" stroke-linejoin="round"><animate attributeName="stroke-dashoffset" by="21.13" dur="0.24s" repeatCount="indefinite" /></path> <path d="M 90 20.37 L 47.7 31.14 L 36.3 91.14 C 58.7 45.43, 86.33 12.04, 11.87 8.72 L 45.51 93.78 L 45.4 59.8 C 86.17 63.55, 36.92 47.95, 39.12 87.4 " fill="none" stroke="black" stroke-width="4" stroke-linejoin="round"></path> <path d="M 90 20.37 L 47.7 31.14 L 36.3 91.14 C 58.7 45.43, 86.33 12.04, 11.87 8.72 L 45.51 93.78 L 45.4 59.8 C 86.17 63.55, 36.92 47.95, 39.12 87.4 " fill="none" stroke="hsl(74,100%,72%)" stroke-width="1.31" stroke-dasharray="14.62,3.85" stroke-linejoin="round"><animate attributeName="stroke-dashoffset" by="18.47" dur="0.35s" repeatCount="indefinite" /></path> <path d="M 90 20.37 L 47.7 31.14 L 36.3 91.14 C 58.7 45.43, 86.33 12.04, 11.87 8.72 L 45.51 93.78 L 45.4 59.8 C 86.17 63.55, 36.92 47.95, 39.12 87.4 " fill="none" stroke="hsl(344,100%,67%)" stroke-width="2.01" stroke-dasharray="14.62,3.85" stroke-linejoin="round"><animate attributeName="stroke-dashoffset" by="18.47" dur="0.19s" repeatCount="indefinite" /></path> </svg>