<svg version="1.0" xmlns="http://www.w3.org/2000/svg" viewBox="0 0 545 545" preserveAspectRatio="xMidYMid meet" style="width: 100%; height: auto;">
  <g fill="currentColor">
    <path d="M0 272.50 l0 -272.50 272.50 0 272.50 0 0 272.50 0 272.50 -272.50 0 -272.50 0 0 -272.50z m122.90 176.20 c8.05 -1.65 17.15 -5.55 23.60 -10.10 1.80 -1.25 5.05 -4.10 7.30 -6.30 12.35 -12.45 17.55 -26.75 26.20 -72.30 4.80 -25.10 7.20 -34.55 9 -35.50 3.95 -2.10 7.55 1.35 10.15 9.80 2.15 6.75 7.10 32.95 8.35 43.70 0.50 4.50 3.45 12.30 9.05 23.90 4.20 8.70 6.40 11.25 12 14.05 5 2.50 8.50 3.25 14.20 2.95 5.80 -0.35 10.35 -2.05 17.30 -6.65 l5.15 -3.35 7.80 -0.10 c6.90 -0.10 8.25 -0.25 12.25 -1.50 9.35 -2.85 18.95 -8 27 -14.45 6.05 -4.85 12.70 -12.10 20.95 -22.75 4.05 -5.25 7.55 -9.60 7.75 -9.60 0.65 0.05 5.50 7.40 7.55 11.45 5.50 11 7.85 19.40 8.50 30.55 1.05 16.90 4 34.15 6.25 36 1.20 1 3.55 -0.30 5.35 -2.90 3.90 -5.65 6.15 -12.65 14.95 -46.75 9 -34.80 14.80 -55.95 17.40 -63.55 2.35 -6.70 4.45 -8.10 15.20 -10.30 3.95 -0.80 8 -1.85 9 -2.25 3.25 -1.35 7.85 -2.20 17.95 -3.25 14.95 -1.55 24.40 -3.70 30.15 -6.90 4.70 -2.60 4.70 -6.15 -0.05 -6.90 -4.35 -0.65 -20.60 0.15 -29.95 1.50 -4.95 0.70 -12.05 1.40 -15.75 1.60 -8.70 0.35 -11.55 0.90 -13 2.45 -1.30 1.35 -3.05 1.65 -3.90 0.60 -2.95 -3.55 1.70 -22.25 17.50 -70.35 9.75 -29.60 16.05 -46.80 30.90 -84.50 13 -32.90 14.50 -37.55 14.65 -44.50 0.05 -4.60 -0.90 -6.75 -3.50 -7.80 -5.45 -2.30 -7.95 1.30 -17.30 24.85 -2.90 7.30 -7.65 18.55 -10.50 25 -23.20 52 -71.75 150 -80.85 163.20 -3.10 4.45 -5.10 6.25 -9.30 8.25 -3.45 1.65 -14.55 5 -16.65 5 -1.70 0 -6.95 3.10 -10.15 5.95 -3.15 2.85 -4.40 5.25 -4.40 8.65 0 3.25 1.05 5.55 4.70 10.80 4.75 6.80 5.35 9.50 3.10 13.95 -2.75 5.45 -14.90 20.15 -20.85 25.20 -7.75 6.60 -24.75 15.20 -31.80 16.05 -0.90 0.15 -1.65 0.10 -1.65 -0.05 0.05 -0.15 1.20 -1.20 2.60 -2.30 3.95 -3.10 11.60 -10.75 13.30 -13.30 2.05 -3 2.40 -4.60 1.35 -5.65 -1.05 -1 -2.85 -1.05 -4.80 0 -0.85 0.40 -4.15 3.30 -7.35 6.35 -5.10 4.85 -11.30 9.70 -13.70 10.60 -1.45 0.55 -4.90 -7.70 -4.90 -11.80 0 -5.20 3.30 -9.70 12.50 -16.95 6.70 -5.35 7.85 -6.55 7.20 -7.60 -0.55 -0.90 -4.60 -0.10 -8.10 1.65 -8.60 4.20 -22.80 15.20 -25.65 19.80 -1.85 3 -1.50 6.90 1 11.85 1.15 2.25 2.75 4.75 3.55 5.65 1.90 2 1.90 2.30 -0.10 1.90 -5.70 -1.25 -12.25 -7.85 -18.30 -18.45 -4.60 -8 -5.65 -11.80 -10.60 -38.80 -4.50 -24.50 -6.70 -32.95 -10.05 -38.55 -1.15 -1.90 -1.95 -3.90 -1.95 -4.80 0 -2.30 3 -5.80 18 -21.40 6.90 -7.15 14.60 -16.05 27 -31.25 19.60 -24 29 -33.90 39.70 -41.95 7.10 -5.35 11.30 -9.45 11.30 -11 0 -1.40 -1.85 -2.55 -4.10 -2.55 -6.40 0 -17.80 8.35 -35.40 26 -10.80 10.75 -18.85 19.85 -30.95 34.95 -13.10 16.30 -22.95 27.20 -31.05 34.45 -7.55 6.75 -9.70 7.90 -11.55 6.05 -1.05 -1.05 -1.05 -1.40 -0.75 -6.05 0.35 -5.50 2.05 -21.70 4.30 -40.90 4.40 -37.25 9.50 -57.70 17.40 -70 3.50 -5.40 6 -7.95 10.95 -11.40 5.10 -3.50 6 -4.35 6.65 -6.60 0.65 -2.30 -0.85 -5.65 -3 -6.75 -2.15 -1.10 -3.80 -0.75 -9.85 2.05 -7 3.30 -9.45 3.70 -22.65 3.70 -16.70 0 -24.60 0.80 -29.75 3 -3.60 1.55 -10.35 7.10 -18.25 15 -11.05 11.05 -13.05 14.30 -10.80 17.75 1.35 2.05 3 1.35 6.80 -2.85 8.20 -9.10 12.65 -13.15 16.90 -15.30 6.65 -3.30 9.90 -3.85 23.95 -3.85 6.65 0 12.25 0.15 12.45 0.40 0.20 0.20 -1.15 4.35 -3 9.25 -8.65 22.50 -11.40 30.80 -13.60 40.60 -2.15 9.60 -4.35 27.85 -7.70 63.75 -2.60 28.10 -5.25 44.85 -12.30 78 -2.45 11.45 -8.25 35 -11 44.55 -3.70 13.05 -5.10 16.10 -8.85 19.55 -3.80 3.55 -8.55 5.35 -17.75 6.90 -6.30 1.05 -8.55 0.75 -13.35 -1.70 -9.80 -5.10 -19.90 -16.15 -25.20 -27.60 -4.55 -9.90 -4.15 -14.95 1.95 -23.50 4.15 -5.85 6 -9.50 6 -11.90 0 -1.90 -0.95 -3.55 -2.05 -3.55 -5.25 0 -19.75 17.50 -22.60 27.30 -4 13.75 2.80 32.65 16.45 45.75 5 4.80 12.25 8 21.50 9.45 3.70 0.55 11.80 0.20 16.60 -0.80z"/>
    <path d="M374.40 377.50 c-0.45 -0.30 -1.75 -2 -2.95 -3.85 -3.15 -5.10 -4.85 -7.10 -6.95 -8.15 -2.05 -1.05 -3.75 -3.55 -5.45 -8.15 -1.55 -4.30 -3 -6.90 -4.65 -8.70 -1.50 -1.55 -1.50 -1.65 -0.95 -4 0.90 -3.50 3.85 -9.30 6.15 -11.90 2.95 -3.35 5.55 -4.60 13.35 -6.50 3.85 -0.95 9.10 -2.40 11.65 -3.20 2.55 -0.80 5.20 -1.55 5.90 -1.75 1.55 -0.35 3.35 0.10 3.70 0.95 0.45 1.25 -1.15 7.15 -6.10 22.25 -2.75 8.40 -5.50 17.40 -6.10 20 -0.60 2.60 -1.45 6.10 -1.80 7.75 -1.15 4.75 -3.30 6.75 -5.80 5.25z"/>
    <path d="M376.95 308.30 c-1 -2.10 0.40 -6.20 6.10 -18.05 9.20 -19.05 14.25 -29.80 20.80 -44.25 10.55 -23.25 16.30 -33.75 18.45 -33.75 0.75 0 1 0.40 1.10 1.80 0.30 3.70 -1.45 10.65 -10.55 41.20 -1.80 6.05 -4.45 15.40 -5.85 20.75 -8 30.35 -7.80 30 -16.05 30 -5.50 0 -9.05 0.75 -10.90 2.30 -1.80 1.50 -2.45 1.50 -3.10 0z"/>
  </g>
  <g fill="var(--secondary-fill, #ffffff)">
    <path d="M106.30 449.50 c-9.25 -1.45 -16.50 -4.65 -21.50 -9.45 -13.65 -13.10 -20.45 -32 -16.45 -45.75 2.85 -9.80 17.35 -27.30 22.60 -27.30 1.10 0 2.05 1.65 2.05 3.55 0 2.40 -1.85 6.05 -6 11.90 -6.10 8.55 -6.50 13.60 -1.95 23.50 3.90 8.35 11.45 17.90 18.60 23.45 3.95 3 9.70 5.95 12.55 6.35 4.10 0.65 16.10 -1.85 20.95 -4.35 2.65 -1.30 6.15 -4.65 7.65 -7.15 4.75 -8.15 17.45 -60.55 23.65 -97.50 2.25 -13.35 3.40 -22.70 5.05 -40.50 3.35 -35.90 5.55 -54.15 7.70 -63.75 2.20 -9.80 4.95 -18.10 13.60 -40.60 1.85 -4.90 3.20 -9.05 3 -9.25 -0.20 -0.25 -5.80 -0.40 -12.45 -0.40 -14.05 0 -17.30 0.55 -23.95 3.85 -4.25 2.15 -8.70 6.20 -16.90 15.30 -3.80 4.20 -5.45 4.90 -6.80 2.85 -2.25 -3.45 -0.25 -6.70 10.80 -17.75 7.90 -7.90 14.65 -13.45 18.25 -15 5.15 -2.20 13.05 -3 29.75 -3 13.20 0 15.65 -0.40 22.65 -3.70 6.05 -2.80 7.70 -3.15 9.85 -2.05 2.15 1.10 3.65 4.45 3 6.75 -0.65 2.25 -1.55 3.10 -6.65 6.60 -4.95 3.45 -7.45 6 -10.95 11.40 -7.90 12.30 -13 32.75 -17.40 70 -2.25 19.20 -3.95 35.40 -4.30 40.90 -0.30 4.65 -0.30 5 0.75 6.05 1.85 1.85 4 0.70 11.55 -6.05 8.10 -7.25 17.95 -18.15 31.05 -34.45 12.10 -15.10 20.15 -24.20 30.95 -34.95 17.60 -17.65 29 -26 35.40 -26 2.25 0 4.10 1.15 4.10 2.55 0 1.55 -4.20 5.65 -11.30 11 -10.70 8.05 -20.10 17.95 -39.70 41.95 -12.40 15.20 -20.10 24.10 -27 31.25 -15 15.60 -18 19.10 -18 21.40 0 0.90 0.80 2.90 1.95 4.80 3.35 5.60 5.55 14.05 10.05 38.55 4.95 27 6 30.80 10.60 38.80 6.05 10.60 12.60 17.20 18.30 18.45 2 0.40 2 0.10 0.10 -1.90 -0.80 -0.90 -2.40 -3.40 -3.55 -5.65 -2.50 -4.95 -2.85 -8.85 -1 -11.85 2.85 -4.60 17.05 -15.60 25.65 -19.80 3.50 -1.75 7.55 -2.55 8.10 -1.65 0.65 1.05 -0.50 2.25 -7.20 7.60 -9.20 7.25 -12.50 11.75 -12.50 16.95 0 4.10 3.45 12.35 4.90 11.80 2.40 -0.90 8.60 -5.75 13.70 -10.60 3.20 -3.05 6.50 -5.95 7.35 -6.35 1.95 -1.05 3.75 -1 4.80 0 1.05 1.05 0.70 2.65 -1.35 5.65 -1.70 2.55 -9.35 10.20 -13.30 13.30 -1.40 1.10 -2.55 2.15 -2.60 2.30 0 0.15 0.75 0.20 1.65 0.05 7.05 -0.85 24.05 -9.45 31.80 -16.05 5.95 -5.05 18.10 -19.75 20.85 -25.20 2.25 -4.45 1.65 -7.15 -3.10 -13.95 -3.65 -5.25 -4.70 -7.55 -4.70 -10.80 0 -3.40 1.25 -5.80 4.40 -8.65 3.20 -2.85 8.45 -5.95 10.15 -5.95 2.10 0 13.20 -3.35 16.65 -5 4.20 -2 6.20 -3.80 9.30 -8.25 9.10 -13.20 57.65 -111.20 80.85 -163.20 2.85 -6.45 7.60 -17.70 10.50 -25 9.35 -23.55 11.85 -27.15 17.30 -24.85 2.60 1.05 3.55 3.20 3.50 7.80 -0.15 6.95 -1.65 11.60 -14.65 44.50 -14.85 37.70 -21.15 54.90 -30.90 84.50 -15.80 48.10 -20.45 66.80 -17.50 70.35 0.85 1.05 2.60 0.75 3.90 -0.60 1.45 -1.55 4.30 -2.10 13 -2.45 3.70 -0.20 10.80 -0.90 15.75 -1.60 9.35 -1.35 25.60 -2.15 29.95 -1.50 4.75 0.75 4.75 4.30 0.05 6.90 -5.75 3.20 -15.20 5.35 -30.15 6.90 -10.10 1.05 -14.70 1.90 -17.95 3.25 -1 0.40 -5.05 1.45 -9 2.25 -10.75 2.20 -12.85 3.60 -15.20 10.30 -2.60 7.60 -8.40 28.75 -17.40 63.55 -8.80 34.10 -11.05 41.10 -14.95 46.75 -1.80 2.60 -4.15 3.90 -5.35 2.90 -2.25 -1.85 -5.20 -19.10 -6.25 -36 -0.65 -11.15 -3 -19.55 -8.50 -30.55 -2.05 -4.05 -6.90 -11.40 -7.55 -11.45 -0.20 0 -3.70 4.35 -7.75 9.60 -8.25 10.65 -14.90 17.90 -20.95 22.75 -8.05 6.45 -17.65 11.60 -27 14.45 -4 1.25 -5.35 1.40 -12.25 1.50 l-7.80 0.10 -5.15 3.35 c-6.95 4.60 -11.50 6.30 -17.30 6.65 -5.70 0.30 -9.20 -0.45 -14.20 -2.95 -5.60 -2.80 -7.80 -5.35 -12 -14.05 -5.60 -11.60 -8.55 -19.40 -9.05 -23.90 -1.25 -10.75 -6.20 -36.95 -8.35 -43.70 -2.60 -8.45 -6.20 -11.90 -10.15 -9.80 -1.80 0.95 -4.20 10.40 -9 35.50 -8.65 45.55 -13.85 59.85 -26.20 72.30 -6.60 6.55 -14.45 11.40 -23.40 14.40 -7.95 2.60 -17.90 3.75 -24.10 2.80z m272.25 -73 c0.50 -0.70 1.25 -2.60 1.65 -4.25 0.35 -1.65 1.20 -5.15 1.80 -7.75 0.60 -2.60 3.35 -11.60 6.10 -20 4.95 -15.10 6.55 -21 6.10 -22.25 -0.35 -0.85 -2.15 -1.30 -3.70 -0.95 -0.70 0.20 -3.35 0.95 -5.90 1.75 -2.55 0.80 -7.80 2.25 -11.65 3.20 -7.80 1.90 -10.40 3.15 -13.35 6.50 -2.30 2.60 -5.25 8.40 -6.15 11.90 -0.55 2.35 -0.55 2.45 0.95 4 1.65 1.80 3.10 4.40 4.65 8.70 1.70 4.60 3.40 7.10 5.45 8.15 2.10 1.05 3.80 3.05 6.95 8.15 1.20 1.85 2.50 3.55 2.95 3.85 1.35 0.80 3.20 0.35 4.15 -1z m1.50 -68.20 c1.85 -1.55 5.40 -2.30 10.90 -2.30 8.25 0 8.05 0.35 16.05 -30 1.40 -5.35 4.05 -14.70 5.85 -20.75 9.10 -30.55 10.85 -37.50 10.55 -41.20 -0.10 -1.40 -0.35 -1.80 -1.10 -1.80 -2.15 0 -7.90 10.50 -18.45 33.75 -6.55 14.45 -11.60 25.20 -20.80 44.25 -5.70 11.85 -7.10 15.95 -6.10 18.05 0.65 1.50 1.30 1.50 3.10 0z"/>
  </g>
</svg>
